<svg width="30" height="30" viewBox="0 0 30 30" fill="none" xmlns="http://www.w3.org/2000/svg">
<path d="M4.6875 6.5625C4.6875 6.04473 5.10723 5.625 5.625 5.625H24.375C24.8928 5.625 25.3125 6.04473 25.3125 6.5625C25.3125 7.08027 24.8928 7.5 24.375 7.5H5.625C5.10723 7.5 4.6875 7.08027 4.6875 6.5625Z" fill="white"/>
<path d="M4.6875 15C4.6875 14.4822 5.10723 14.0625 5.625 14.0625H24.375C24.8928 14.0625 25.3125 14.4822 25.3125 15C25.3125 15.5178 24.8928 15.9375 24.375 15.9375H5.625C5.10723 15.9375 4.6875 15.5178 4.6875 15Z" fill="white"/>
<path d="M4.79883 23.7371C4.79883 23.2193 5.21856 22.7996 5.73633 22.7996H24.4863C25.0041 22.7996 25.4238 23.2193 25.4238 23.7371C25.4238 24.2548 25.0041 24.6746 24.4863 24.6746H5.73633C5.21856 24.6746 4.79883 24.2548 4.79883 23.7371Z" fill="white"/>
</svg>
